<svg height="64" width="64" xmlns="http://www.w3.org/2000/svg"><path d="m31 4h1v1h-1z" fill="#431e1e"/><path d="m30 5h1v1h-1z" fill="#74341a"/><path d="m31 5h1v1h-1z" fill="#431e1e"/><path d="m32 5h1v1h-1z" fill="#431e1e"/><path d="m29 6h1v1h-1z" fill="#74341a"/><path d="m30 6h1v1h-1z" fill="#74341a"/><path d="m31 6h1v1h-1z" fill="#431e1e"/><path d="m32 6h1v1h-1z" fill="#431e1e"/><path d="m28 7h1v1h-1z" fill="#74341a"/><path d="m29 7h1v1h-1z" fill="#74341a"/><path d="m30 7h1v1h-1z" fill="#74341a"/><path d="m31 7h1v1h-1z" fill="#431e1e"/><path d="m32 7h1v1h-1z" fill="#431e1e"/><path d="m27 8h1v1h-1z" fill="#74341a"/><path d="m28 8h1v1h-1z" fill="#74341a"/><path d="m29 8h1v1h-1z" fill="#74341a"/><path d="m30 8h1v1h-1z" fill="#74341a"/><path d="m31 8h1v1h-1z" fill="#431e1e"/><path d="m32 8h1v1h-1z" fill="#431e1e"/><path d="m26 9h1v1h-1z" fill="#74341a"/><path d="m27 9h1v1h-1z" fill="#74341a"/><path d="m28 9h1v1h-1z" fill="#74341a"/><path d="m29 9h1v1h-1z" fill="#74341a"/><path d="m30 9h1v1h-1z" fill="#74341a"/><path d="m31 9h1v1h-1z" fill="#431e1e"/><path d="m32 9h1v1h-1z" fill="#431e1e"/><path d="m25 10h1v1h-1z" fill="#74341a"/><path d="m26 10h1v1h-1z" fill="#74341a"/><path d="m27 10h1v1h-1z" fill="#74341a"/><path d="m28 10h1v1h-1z" fill="#74341a"/><path d="m29 10h1v1h-1z" fill="#74341a"/><path d="m30 10h1v1h-1z" fill="#74341a"/><path d="m31 10h1v1h-1z" fill="#431e1e"/><path d="m32 10h1v1h-1z" fill="#431e1e"/><path d="m24 11h1v1h-1z" fill="#74341a"/><path d="m25 11h1v1h-1z" fill="#74341a"/><path d="m26 11h1v1h-1z" fill="#74341a"/><path d="m27 11h1v1h-1z" fill="#74341a"/><path d="m28 11h1v1h-1z" fill="#74341a"/><path d="m29 11h1v1h-1z" fill="#74341a"/><path d="m30 11h1v1h-1z" fill="#74341a"/><path d="m31 11h1v1h-1z" fill="#431e1e"/><path d="m32 11h1v1h-1z" fill="#431e1e"/><path d="m23 12h1v1h-1z" fill="#74341a"/><path d="m24 12h1v1h-1z" fill="#74341a"/><path d="m25 12h1v1h-1z" fill="#74341a"/><path d="m26 12h1v1h-1z" fill="#74341a"/><path d="m27 12h1v1h-1z" fill="#74341a"/><path d="m28 12h1v1h-1z" fill="#74341a"/><path d="m29 12h1v1h-1z" fill="#74341a"/><path d="m30 12h1v1h-1z" fill="#74341a"/><path d="m31 12h1v1h-1z" fill="#431e1e"/><path d="m32 12h1v1h-1z" fill="#431e1e"/><path d="m22 13h1v1h-1z" fill="#74341a"/><path d="m23 13h1v1h-1z" fill="#74341a"/><path d="m24 13h1v1h-1z" fill="#74341a"/><path d="m25 13h1v1h-1z" fill="#74341a"/><path d="m26 13h1v1h-1z" fill="#74341a"/><path d="m27 13h1v1h-1z" fill="#74341a"/><path d="m28 13h1v1h-1z" fill="#74341a"/><path d="m29 13h1v1h-1z" fill="#74341a"/><path d="m30 13h1v1h-1z" fill="#74341a"/><path d="m31 13h1v1h-1z" fill="#431e1e"/><path d="m32 13h1v1h-1z" fill="#431e1e"/><path d="m21 14h1v1h-1z" fill="#74341a"/><path d="m22 14h1v1h-1z" fill="#74341a"/><path d="m23 14h1v1h-1z" fill="#74341a"/><path d="m24 14h1v1h-1z" fill="#74341a"/><path d="m25 14h1v1h-1z" fill="#74341a"/><path d="m26 14h1v1h-1z" fill="#74341a"/><path d="m27 14h1v1h-1z" fill="#74341a"/><path d="m28 14h1v1h-1z" fill="#74341a"/><path d="m29 14h1v1h-1z" fill="#74341a"/><path d="m30 14h1v1h-1z" fill="#74341a"/><path d="m31 14h1v1h-1z" fill="#431e1e"/><path d="m32 14h1v1h-1z" fill="#431e1e"/><path d="m20 15h1v1h-1z" fill="#431e1e"/><path d="m21 15h1v1h-1z" fill="#74341a"/><path d="m22 15h1v1h-1z" fill="#74341a"/><path d="m23 15h1v1h-1z" fill="#74341a"/><path d="m24 15h1v1h-1z" fill="#74341a"/><path d="m25 15h1v1h-1z" fill="#74341a"/><path d="m26 15h1v1h-1z" fill="#74341a"/><path d="m27 15h1v1h-1z" fill="#74341a"/><path d="m28 15h1v1h-1z" fill="#74341a"/><path d="m29 15h1v1h-1z" fill="#74341a"/><path d="m30 15h1v1h-1z" fill="#74341a"/><path d="m31 15h1v1h-1z" fill="#431e1e"/><path d="m32 15h1v1h-1z" fill="#431e1e"/><path d="m20 16h1v1h-1z" fill="#431e1e"/><path d="m21 16h1v1h-1z" fill="#431e1e"/><path d="m22 16h1v1h-1z" fill="#74341a"/><path d="m23 16h1v1h-1z" fill="#74341a"/><path d="m24 16h1v1h-1z" fill="#74341a"/><path d="m25 16h1v1h-1z" fill="#74341a"/><path d="m26 16h1v1h-1z" fill="#74341a"/><path d="m27 16h1v1h-1z" fill="#74341a"/><path d="m28 16h1v1h-1z" fill="#74341a"/><path d="m29 16h1v1h-1z" fill="#74341a"/><path d="m30 16h1v1h-1z" fill="#74341a"/><path d="m31 16h1v1h-1z" fill="#431e1e"/><path d="m32 16h1v1h-1z" fill="#431e1e"/><path d="m20 17h1v1h-1z" fill="#431e1e"/><path d="m21 17h1v1h-1z" fill="#431e1e"/><path d="m22 17h1v1h-1z" fill="#74341a"/><path d="m23 17h1v1h-1z" fill="#74341a"/><path d="m24 17h1v1h-1z" fill="#74341a"/><path d="m25 17h1v1h-1z" fill="#74341a"/><path d="m26 17h1v1h-1z" fill="#74341a"/><path d="m27 17h1v1h-1z" fill="#74341a"/><path d="m28 17h1v1h-1z" fill="#74341a"/><path d="m29 17h1v1h-1z" fill="#74341a"/><path d="m30 17h1v1h-1z" fill="#74341a"/><path d="m31 17h1v1h-1z" fill="#431e1e"/><path d="m32 17h1v1h-1z" fill="#431e1e"/><path d="m20 18h1v1h-1z" fill="#431e1e"/><path d="m21 18h1v1h-1z" fill="#431e1e"/><path d="m22 18h1v1h-1z" fill="#74341a"/><path d="m23 18h1v1h-1z" fill="#74341a"/><path d="m24 18h1v1h-1z" fill="#74341a"/><path d="m25 18h1v1h-1z" fill="#74341a"/><path d="m26 18h1v1h-1z" fill="#74341a"/><path d="m27 18h1v1h-1z" fill="#74341a"/><path d="m28 18h1v1h-1z" fill="#74341a"/><path d="m29 18h1v1h-1z" fill="#74341a"/><path d="m30 18h1v1h-1z" fill="#74341a"/><path d="m31 18h1v1h-1z" fill="#431e1e"/><path d="m32 18h1v1h-1z" fill="#431e1e"/><path d="m20 19h1v1h-1z" fill="#431e1e"/><path d="m21 19h1v1h-1z" fill="#431e1e"/><path d="m22 19h1v1h-1z" fill="#74341a"/><path d="m23 19h1v1h-1z" fill="#74341a"/><path d="m24 19h1v1h-1z" fill="#74341a"/><path d="m25 19h1v1h-1z" fill="#74341a"/><path d="m26 19h1v1h-1z" fill="#74341a"/><path d="m27 19h1v1h-1z" fill="#74341a"/><path d="m28 19h1v1h-1z" fill="#74341a"/><path d="m29 19h1v1h-1z" fill="#74341a"/><path d="m31 19h1v1h-1z" fill="#431e1e"/><path d="m32 19h1v1h-1z" fill="#431e1e"/><path d="m20 20h1v1h-1z" fill="#431e1e"/><path d="m21 20h1v1h-1z" fill="#431e1e"/><path d="m22 20h1v1h-1z" fill="#74341a"/><path d="m23 20h1v1h-1z" fill="#74341a"/><path d="m24 20h1v1h-1z" fill="#74341a"/><path d="m25 20h1v1h-1z" fill="#74341a"/><path d="m26 20h1v1h-1z" fill="#74341a"/><path d="m27 20h1v1h-1z" fill="#74341a"/><path d="m28 20h1v1h-1z" fill="#74341a"/><path d="m31 20h1v1h-1z" fill="#431e1e"/><path d="m32 20h1v1h-1z" fill="#431e1e"/><path d="m20 21h1v1h-1z" fill="#431e1e"/><path d="m21 21h1v1h-1z" fill="#431e1e"/><path d="m22 21h1v1h-1z" fill="#74341a"/><path d="m23 21h1v1h-1z" fill="#74341a"/><path d="m24 21h1v1h-1z" fill="#74341a"/><path d="m25 21h1v1h-1z" fill="#74341a"/><path d="m26 21h1v1h-1z" fill="#74341a"/><path d="m27 21h1v1h-1z" fill="#74341a"/><path d="m31 21h1v1h-1z" fill="#431e1e"/><path d="m32 21h1v1h-1z" fill="#431e1e"/><path d="m20 22h1v1h-1z" fill="#431e1e"/><path d="m21 22h1v1h-1z" fill="#431e1e"/><path d="m22 22h1v1h-1z" fill="#74341a"/><path d="m23 22h1v1h-1z" fill="#74341a"/><path d="m24 22h1v1h-1z" fill="#74341a"/><path d="m25 22h1v1h-1z" fill="#74341a"/><path d="m26 22h1v1h-1z" fill="#74341a"/><path d="m31 22h1v1h-1z" fill="#431e1e"/><path d="m32 22h1v1h-1z" fill="#431e1e"/><path d="m20 23h1v1h-1z" fill="#431e1e"/><path d="m21 23h1v1h-1z" fill="#431e1e"/><path d="m22 23h1v1h-1z" fill="#74341a"/><path d="m23 23h1v1h-1z" fill="#74341a"/><path d="m24 23h1v1h-1z" fill="#74341a"/><path d="m25 23h1v1h-1z" fill="#74341a"/><path d="m30 23h1v1h-1z" fill="#74341a"/><path d="m31 23h1v1h-1z" fill="#431e1e"/><path d="m32 23h1v1h-1z" fill="#74341a"/><path d="m33 23h1v1h-1z" fill="#74341a"/><path d="m20 24h1v1h-1z" fill="#431e1e"/><path d="m21 24h1v1h-1z" fill="#431e1e"/><path d="m22 24h1v1h-1z" fill="#74341a"/><path d="m23 24h1v1h-1z" fill="#74341a"/><path d="m24 24h1v1h-1z" fill="#74341a"/><path d="m29 24h1v1h-1z" fill="#74341a"/><path d="m30 24h1v1h-1z" fill="#74341a"/><path d="m31 24h1v1h-1z" fill="#74341a"/><path d="m32 24h1v1h-1z" fill="#74341a"/><path d="m33 24h1v1h-1z" fill="#74341a"/><path d="m34 24h1v1h-1z" fill="#74341a"/><path d="m20 25h1v1h-1z" fill="#431e1e"/><path d="m21 25h1v1h-1z" fill="#431e1e"/><path d="m22 25h1v1h-1z" fill="#74341a"/><path d="m23 25h1v1h-1z" fill="#74341a"/><path d="m28 25h1v1h-1z" fill="#74341a"/><path d="m29 25h1v1h-1z" fill="#74341a"/><path d="m30 25h1v1h-1z" fill="#74341a"/><path d="m31 25h1v1h-1z" fill="#74341a"/><path d="m32 25h1v1h-1z" fill="#74341a"/><path d="m33 25h1v1h-1z" fill="#74341a"/><path d="m34 25h1v1h-1z" fill="#74341a"/><path d="m35 25h1v1h-1z" fill="#74341a"/><path d="m20 26h1v1h-1z" fill="#431e1e"/><path d="m21 26h1v1h-1z" fill="#431e1e"/><path d="m22 26h1v1h-1z" fill="#74341a"/><path d="m27 26h1v1h-1z" fill="#74341a"/><path d="m28 26h1v1h-1z" fill="#74341a"/><path d="m29 26h1v1h-1z" fill="#74341a"/><path d="m30 26h1v1h-1z" fill="#74341a"/><path d="m31 26h1v1h-1z" fill="#74341a"/><path d="m32 26h1v1h-1z" fill="#74341a"/><path d="m33 26h1v1h-1z" fill="#74341a"/><path d="m34 26h1v1h-1z" fill="#74341a"/><path d="m35 26h1v1h-1z" fill="#74341a"/><path d="m36 26h1v1h-1z" fill="#74341a"/><path d="m20 27h1v1h-1z" fill="#431e1e"/><path d="m21 27h1v1h-1z" fill="#431e1e"/><path d="m26 27h1v1h-1z" fill="#74341a"/><path d="m27 27h1v1h-1z" fill="#74341a"/><path d="m28 27h1v1h-1z" fill="#74341a"/><path d="m29 27h1v1h-1z" fill="#74341a"/><path d="m30 27h1v1h-1z" fill="#74341a"/><path d="m31 27h1v1h-1z" fill="#ab5a22"/><path d="m32 27h1v1h-1z" fill="#af5d23"/><path d="m33 27h1v1h-1z" fill="#af5d23"/><path d="m34 27h1v1h-1z" fill="#74341a"/><path d="m35 27h1v1h-1z" fill="#74341a"/><path d="m36 27h1v1h-1z" fill="#74341a"/><path d="m37 27h1v1h-1z" fill="#74341a"/><path d="m20 28h1v1h-1z" fill="#431e1e"/><path d="m21 28h1v1h-1z" fill="#431e1e"/><path d="m25 28h1v1h-1z" fill="#74341a"/><path d="m26 28h1v1h-1z" fill="#74341a"/><path d="m27 28h1v1h-1z" fill="#74341a"/><path d="m28 28h1v1h-1z" fill="#74341a"/><path d="m29 28h1v1h-1z" fill="#af5d23"/><path d="m30 28h1v1h-1z" fill="#af5d23"/><path d="m31 28h1v1h-1z" fill="#af5d23"/><path d="m32 28h1v1h-1z" fill="#af5d23"/><path d="m33 28h1v1h-1z" fill="#af5d23"/><path d="m34 28h1v1h-1z" fill="#af5d23"/><path d="m35 28h1v1h-1z" fill="#af5d23"/><path d="m36 28h1v1h-1z" fill="#74341a"/><path d="m37 28h1v1h-1z" fill="#74341a"/><path d="m38 28h1v1h-1z" fill="#74341a"/><path d="m20 29h1v1h-1z" fill="#431e1e"/><path d="m21 29h1v1h-1z" fill="#431e1e"/><path d="m24 29h1v1h-1z" fill="#74341a"/><path d="m25 29h1v1h-1z" fill="#74341a"/><path d="m26 29h1v1h-1z" fill="#74341a"/><path d="m27 29h1v1h-1z" fill="#74341a"/><path d="m28 29h1v1h-1z" fill="#af5d23"/><path d="m29 29h1v1h-1z" fill="#af5d23"/><path d="m30 29h1v1h-1z" fill="#af5d23"/><path d="m31 29h1v1h-1z" fill="#af5d23"/><path d="m32 29h1v1h-1z" fill="#af5d23"/><path d="m33 29h1v1h-1z" fill="#af5d23"/><path d="m34 29h1v1h-1z" fill="#af5d23"/><path d="m35 29h1v1h-1z" fill="#af5d23"/><path d="m36 29h1v1h-1z" fill="#af5d23"/><path d="m37 29h1v1h-1z" fill="#74341a"/><path d="m38 29h1v1h-1z" fill="#74341a"/><path d="m39 29h1v1h-1z" fill="#74341a"/><path d="m20 30h1v1h-1z" fill="#431e1e"/><path d="m21 30h1v1h-1z" fill="#431e1e"/><path d="m23 30h1v1h-1z" fill="#74341a"/><path d="m24 30h1v1h-1z" fill="#74341a"/><path d="m25 30h1v1h-1z" fill="#74341a"/><path d="m26 30h1v1h-1z" fill="#74341a"/><path d="m27 30h1v1h-1z" fill="#af5d23"/><path d="m28 30h1v1h-1z" fill="#af5d23"/><path d="m29 30h1v1h-1z" fill="#af5d23"/><path d="m30 30h1v1h-1z" fill="#af5d23"/><path d="m31 30h1v1h-1z" fill="#af5d23"/><path d="m32 30h1v1h-1z" fill="#af5d23"/><path d="m33 30h1v1h-1z" fill="#af5d23"/><path d="m34 30h1v1h-1z" fill="#af5d23"/><path d="m35 30h1v1h-1z" fill="#af5d23"/><path d="m36 30h1v1h-1z" fill="#af5d23"/><path d="m37 30h1v1h-1z" fill="#af5d23"/><path d="m38 30h1v1h-1z" fill="#74341a"/><path d="m39 30h1v1h-1z" fill="#74341a"/><path d="m40 30h1v1h-1z" fill="#74341a"/><path d="m20 31h1v1h-1z" fill="#431e1e"/><path d="m21 31h1v1h-1z" fill="#431e1e"/><path d="m22 31h1v1h-1z" fill="#74341a"/><path d="m23 31h1v1h-1z" fill="#74341a"/><path d="m24 31h1v1h-1z" fill="#74341a"/><path d="m25 31h1v1h-1z" fill="#74341a"/><path d="m26 31h1v1h-1z" fill="#af5d23"/><path d="m27 31h1v1h-1z" fill="#af5d23"/><path d="m28 31h1v1h-1z" fill="#af5d23"/><path d="m29 31h1v1h-1z" fill="#af5d23"/><path d="m30 31h1v1h-1z" fill="#af5d23"/><path d="m31 31h1v1h-1z" fill="#f8993a"/><path d="m32 31h1v1h-1z" fill="#f8993a"/><path d="m33 31h1v1h-1z" fill="#f8993a"/><path d="m34 31h1v1h-1z" fill="#f8993a"/><path d="m35 31h1v1h-1z" fill="#af5d23"/><path d="m36 31h1v1h-1z" fill="#af5d23"/><path d="m37 31h1v1h-1z" fill="#af5d23"/><path d="m38 31h1v1h-1z" fill="#af5d23"/><path d="m39 31h1v1h-1z" fill="#74341a"/><path d="m40 31h1v1h-1z" fill="#74341a"/><path d="m41 31h1v1h-1z" fill="#74341a"/><path d="m20 32h1v1h-1z" fill="#431e1e"/><path d="m21 32h1v1h-1z" fill="#431e1e"/><path d="m22 32h1v1h-1z" fill="#74341a"/><path d="m23 32h1v1h-1z" fill="#74341a"/><path d="m24 32h1v1h-1z" fill="#74341a"/><path d="m25 32h1v1h-1z" fill="#74341a"/><path d="m26 32h1v1h-1z" fill="#af5d23"/><path d="m27 32h1v1h-1z" fill="#af5d23"/><path d="m28 32h1v1h-1z" fill="#af5d23"/><path d="m29 32h1v1h-1z" fill="#af5d23"/><path d="m30 32h1v1h-1z" fill="#f8993a"/><path d="m31 32h1v1h-1z" fill="#f8993a"/><path d="m32 32h1v1h-1z" fill="#f8993a"/><path d="m33 32h1v1h-1z" fill="#f8993a"/><path d="m34 32h1v1h-1z" fill="#f8993a"/><path d="m35 32h1v1h-1z" fill="#f8993a"/><path d="m36 32h1v1h-1z" fill="#af5d23"/><path d="m37 32h1v1h-1z" fill="#af5d23"/><path d="m38 32h1v1h-1z" fill="#af5d23"/><path d="m39 32h1v1h-1z" fill="#af5d23"/><path d="m40 32h1v1h-1z" fill="#74341a"/><path d="m41 32h1v1h-1z" fill="#74341a"/><path d="m42 32h1v1h-1z" fill="#74341a"/><path d="m20 33h1v1h-1z" fill="#431e1e"/><path d="m21 33h1v1h-1z" fill="#431e1e"/><path d="m22 33h1v1h-1z" fill="#74341a"/><path d="m23 33h1v1h-1z" fill="#74341a"/><path d="m24 33h1v1h-1z" fill="#74341a"/><path d="m25 33h1v1h-1z" fill="#af5d23"/><path d="m26 33h1v1h-1z" fill="#af5d23"/><path d="m27 33h1v1h-1z" fill="#af5d23"/><path d="m28 33h1v1h-1z" fill="#af5d23"/><path d="m29 33h1v1h-1z" fill="#f8993a"/><path d="m30 33h1v1h-1z" fill="#f8993a"/><path d="m31 33h1v1h-1z" fill="#f8993a"/><path d="m32 33h1v1h-1z" fill="#f8993a"/><path d="m33 33h1v1h-1z" fill="#f8993a"/><path d="m34 33h1v1h-1z" fill="#f8993a"/><path d="m35 33h1v1h-1z" fill="#f8993a"/><path d="m36 33h1v1h-1z" fill="#f8993a"/><path d="m37 33h1v1h-1z" fill="#af5d23"/><path d="m38 33h1v1h-1z" fill="#af5d23"/><path d="m39 33h1v1h-1z" fill="#af5d23"/><path d="m40 33h1v1h-1z" fill="#af5d23"/><path d="m41 33h1v1h-1z" fill="#74341a"/><path d="m42 33h1v1h-1z" fill="#74341a"/><path d="m43 33h1v1h-1z" fill="#74341a"/><path d="m20 34h1v1h-1z" fill="#431e1e"/><path d="m21 34h1v1h-1z" fill="#431e1e"/><path d="m22 34h1v1h-1z" fill="#74341a"/><path d="m23 34h1v1h-1z" fill="#74341a"/><path d="m24 34h1v1h-1z" fill="#74341a"/><path d="m25 34h1v1h-1z" fill="#af5d23"/><path d="m26 34h1v1h-1z" fill="#af5d23"/><path d="m27 34h1v1h-1z" fill="#af5d23"/><path d="m28 34h1v1h-1z" fill="#af5d23"/><path d="m29 34h1v1h-1z" fill="#f8993a"/><path d="m30 34h1v1h-1z" fill="#f8993a"/><path d="m31 34h1v1h-1z" fill="#f8993a"/><path d="m32 34h1v1h-1z" fill="#f8993a"/><path d="m33 34h1v1h-1z" fill="#f8993a"/><path d="m34 34h1v1h-1z" fill="#f8993a"/><path d="m35 34h1v1h-1z" fill="#f8993a"/><path d="m36 34h1v1h-1z" fill="#f8993a"/><path d="m37 34h1v1h-1z" fill="#f8993a"/><path d="m38 34h1v1h-1z" fill="#af5d23"/><path d="m39 34h1v1h-1z" fill="#af5d23"/><path d="m40 34h1v1h-1z" fill="#af5d23"/><path d="m41 34h1v1h-1z" fill="#af5d23"/><path d="m42 34h1v1h-1z" fill="#74341a"/><path d="m43 34h1v1h-1z" fill="#74341a"/><path d="m44 34h1v1h-1z" fill="#74341a"/><path d="m20 35h1v1h-1z" fill="#431e1e"/><path d="m21 35h1v1h-1z" fill="#74341a"/><path d="m22 35h1v1h-1z" fill="#74341a"/><path d="m23 35h1v1h-1z" fill="#74341a"/><path d="m24 35h1v1h-1z" fill="#74341a"/><path d="m25 35h1v1h-1z" fill="#af5d23"/><path d="m26 35h1v1h-1z" fill="#af5d23"/><path d="m27 35h1v1h-1z" fill="#af5d23"/><path d="m28 35h1v1h-1z" fill="#af5d23"/><path d="m29 35h1v1h-1z" fill="#f8993a"/><path d="m30 35h1v1h-1z" fill="#f8993a"/><path d="m31 35h1v1h-1z" fill="#f8993a"/><path d="m32 35h1v1h-1z" fill="#f8993a"/><path d="m33 35h1v1h-1z" fill="#f8993a"/><path d="m34 35h1v1h-1z" fill="#f8993a"/><path d="m35 35h1v1h-1z" fill="#f8993a"/><path d="m36 35h1v1h-1z" fill="#f8993a"/><path d="m37 35h1v1h-1z" fill="#f8993a"/><path d="m38 35h1v1h-1z" fill="#f8993a"/><path d="m39 35h1v1h-1z" fill="#af5d23"/><path d="m40 35h1v1h-1z" fill="#af5d23"/><path d="m41 35h1v1h-1z" fill="#af5d23"/><path d="m42 35h1v1h-1z" fill="#af5d23"/><path d="m43 35h1v1h-1z" fill="#74341a"/><path d="m44 35h1v1h-1z" fill="#74341a"/><path d="m20 36h1v1h-1z" fill="#431e1e"/><path d="m21 36h1v1h-1z" fill="#431e1e"/><path d="m22 36h1v1h-1z" fill="#74341a"/><path d="m23 36h1v1h-1z" fill="#74341a"/><path d="m24 36h1v1h-1z" fill="#74341a"/><path d="m25 36h1v1h-1z" fill="#74341a"/><path d="m26 36h1v1h-1z" fill="#af5d23"/><path d="m27 36h1v1h-1z" fill="#af5d23"/><path d="m28 36h1v1h-1z" fill="#af5d23"/><path d="m29 36h1v1h-1z" fill="#f8993a"/><path d="m30 36h1v1h-1z" fill="#f8993a"/><path d="m31 36h1v1h-1z" fill="#f8993a"/><path d="m32 36h1v1h-1z" fill="#f8993a"/><path d="m33 36h1v1h-1z" fill="#f8993a"/><path d="m34 36h1v1h-1z" fill="#f8993a"/><path d="m35 36h1v1h-1z" fill="#f8993a"/><path d="m36 36h1v1h-1z" fill="#f8993a"/><path d="m37 36h1v1h-1z" fill="#f8993a"/><path d="m38 36h1v1h-1z" fill="#f8993a"/><path d="m39 36h1v1h-1z" fill="#f8993a"/><path d="m40 36h1v1h-1z" fill="#af5d23"/><path d="m41 36h1v1h-1z" fill="#af5d23"/><path d="m42 36h1v1h-1z" fill="#af5d23"/><path d="m43 36h1v1h-1z" fill="#af5d23"/><path d="m44 36h1v1h-1z" fill="#2f1316"/><path d="m20 37h1v1h-1z" fill="#431e1e"/><path d="m21 37h1v1h-1z" fill="#431e1e"/><path d="m22 37h1v1h-1z" fill="#431e1e"/><path d="m23 37h1v1h-1z" fill="#74341a"/><path d="m24 37h1v1h-1z" fill="#74341a"/><path d="m25 37h1v1h-1z" fill="#74341a"/><path d="m26 37h1v1h-1z" fill="#ab5a22"/><path d="m27 37h1v1h-1z" fill="#af5d23"/><path d="m28 37h1v1h-1z" fill="#af5d23"/><path d="m29 37h1v1h-1z" fill="#af5d23"/><path d="m30 37h1v1h-1z" fill="#f8993a"/><path d="m31 37h1v1h-1z" fill="#f8993a"/><path d="m32 37h1v1h-1z" fill="#f8993a"/><path d="m33 37h1v1h-1z" fill="#f8993a"/><path d="m34 37h1v1h-1z" fill="#f8993a"/><path d="m35 37h1v1h-1z" fill="#f8993a"/><path d="m36 37h1v1h-1z" fill="#f8993a"/><path d="m37 37h1v1h-1z" fill="#f8993a"/><path d="m38 37h1v1h-1z" fill="#f8993a"/><path d="m39 37h1v1h-1z" fill="#f8993a"/><path d="m40 37h1v1h-1z" fill="#f8993a"/><path d="m41 37h1v1h-1z" fill="#af5d23"/><path d="m42 37h1v1h-1z" fill="#af5d23"/><path d="m43 37h1v1h-1z" fill="#2f1316"/><path d="m44 37h1v1h-1z" fill="#2f1316"/><path d="m20 38h1v1h-1z" fill="#431e1e"/><path d="m21 38h1v1h-1z" fill="#431e1e"/><path d="m22 38h1v1h-1z" fill="#431e1e"/><path d="m23 38h1v1h-1z" fill="#431e1e"/><path d="m24 38h1v1h-1z" fill="#74341a"/><path d="m25 38h1v1h-1z" fill="#74341a"/><path d="m26 38h1v1h-1z" fill="#74341a"/><path d="m27 38h1v1h-1z" fill="#af5d23"/><path d="m28 38h1v1h-1z" fill="#af5d23"/><path d="m29 38h1v1h-1z" fill="#af5d23"/><path d="m30 38h1v1h-1z" fill="#af5d23"/><path d="m31 38h1v1h-1z" fill="#f8993a"/><path d="m32 38h1v1h-1z" fill="#f8993a"/><path d="m33 38h1v1h-1z" fill="#f8993a"/><path d="m34 38h1v1h-1z" fill="#f8993a"/><path d="m35 38h1v1h-1z" fill="#f8993a"/><path d="m36 38h1v1h-1z" fill="#f8993a"/><path d="m37 38h1v1h-1z" fill="#f8993a"/><path d="m38 38h1v1h-1z" fill="#f8993a"/><path d="m39 38h1v1h-1z" fill="#f8993a"/><path d="m40 38h1v1h-1z" fill="#f8993a"/><path d="m41 38h1v1h-1z" fill="#f8993a"/><path d="m42 38h1v1h-1z" fill="#2f1316"/><path d="m43 38h1v1h-1z" fill="#2f1316"/><path d="m20 39h1v1h-1z" fill="#431e1e"/><path d="m21 39h1v1h-1z" fill="#2f1316"/><path d="m22 39h1v1h-1z" fill="#2f1316"/><path d="m23 39h1v1h-1z" fill="#431e1e"/><path d="m24 39h1v1h-1z" fill="#431e1e"/><path d="m25 39h1v1h-1z" fill="#74341a"/><path d="m26 39h1v1h-1z" fill="#74341a"/><path d="m27 39h1v1h-1z" fill="#74341a"/><path d="m28 39h1v1h-1z" fill="#af5d23"/><path d="m29 39h1v1h-1z" fill="#af5d23"/><path d="m30 39h1v1h-1z" fill="#af5d23"/><path d="m31 39h1v1h-1z" fill="#af5d23"/><path d="m32 39h1v1h-1z" fill="#f8993a"/><path d="m33 39h1v1h-1z" fill="#f8993a"/><path d="m34 39h1v1h-1z" fill="#f8993a"/><path d="m35 39h1v1h-1z" fill="#f8993a"/><path d="m36 39h1v1h-1z" fill="#f8993a"/><path d="m37 39h1v1h-1z" fill="#f8993a"/><path d="m38 39h1v1h-1z" fill="#f8993a"/><path d="m39 39h1v1h-1z" fill="#f8993a"/><path d="m40 39h1v1h-1z" fill="#f8993a"/><path d="m41 39h1v1h-1z" fill="#2f1316"/><path d="m42 39h1v1h-1z" fill="#2f1316"/><path d="m43 39h1v1h-1z" fill="#431e1e"/><path d="m20 40h1v1h-1z" fill="#431e1e"/><path d="m21 40h1v1h-1z" fill="#431e1e"/><path d="m22 40h1v1h-1z" fill="#2f1316"/><path d="m23 40h1v1h-1z" fill="#2f1316"/><path d="m24 40h1v1h-1z" fill="#431e1e"/><path d="m25 40h1v1h-1z" fill="#431e1e"/><path d="m26 40h1v1h-1z" fill="#74341a"/><path d="m27 40h1v1h-1z" fill="#74341a"/><path d="m28 40h1v1h-1z" fill="#74341a"/><path d="m29 40h1v1h-1z" fill="#af5d23"/><path d="m30 40h1v1h-1z" fill="#af5d23"/><path d="m31 40h1v1h-1z" fill="#af5d23"/><path d="m32 40h1v1h-1z" fill="#af5d23"/><path d="m33 40h1v1h-1z" fill="#f8993a"/><path d="m34 40h1v1h-1z" fill="#f8993a"/><path d="m35 40h1v1h-1z" fill="#f8993a"/><path d="m36 40h1v1h-1z" fill="#f8993a"/><path d="m37 40h1v1h-1z" fill="#f8993a"/><path d="m38 40h1v1h-1z" fill="#f8993a"/><path d="m39 40h1v1h-1z" fill="#f8993a"/><path d="m40 40h1v1h-1z" fill="#2f1316"/><path d="m41 40h1v1h-1z" fill="#2f1316"/><path d="m42 40h1v1h-1z" fill="#431e1e"/><path d="m43 40h1v1h-1z" fill="#431e1e"/><path d="m20 41h1v1h-1z" fill="#431e1e"/><path d="m21 41h1v1h-1z" fill="#431e1e"/><path d="m23 41h1v1h-1z" fill="#2f1316"/><path d="m24 41h1v1h-1z" fill="#2f1316"/><path d="m25 41h1v1h-1z" fill="#431e1e"/><path d="m26 41h1v1h-1z" fill="#431e1e"/><path d="m27 41h1v1h-1z" fill="#74341a"/><path d="m28 41h1v1h-1z" fill="#74341a"/><path d="m29 41h1v1h-1z" fill="#74341a"/><path d="m30 41h1v1h-1z" fill="#af5d23"/><path d="m31 41h1v1h-1z" fill="#af5d23"/><path d="m32 41h1v1h-1z" fill="#af5d23"/><path d="m33 41h1v1h-1z" fill="#af5d23"/><path d="m34 41h1v1h-1z" fill="#f8993a"/><path d="m35 41h1v1h-1z" fill="#f8993a"/><path d="m36 41h1v1h-1z" fill="#f8993a"/><path d="m37 41h1v1h-1z" fill="#f8993a"/><path d="m38 41h1v1h-1z" fill="#f8993a"/><path d="m39 41h1v1h-1z" fill="#2f1316"/><path d="m40 41h1v1h-1z" fill="#2f1316"/><path d="m42 41h1v1h-1z" fill="#431e1e"/><path d="m43 41h1v1h-1z" fill="#431e1e"/><path d="m20 42h1v1h-1z" fill="#431e1e"/><path d="m21 42h1v1h-1z" fill="#431e1e"/><path d="m24 42h1v1h-1z" fill="#2f1316"/><path d="m25 42h1v1h-1z" fill="#2f1316"/><path d="m26 42h1v1h-1z" fill="#421d1d"/><path d="m27 42h1v1h-1z" fill="#431e1e"/><path d="m28 42h1v1h-1z" fill="#74341a"/><path d="m29 42h1v1h-1z" fill="#74341a"/><path d="m30 42h1v1h-1z" fill="#74341a"/><path d="m31 42h1v1h-1z" fill="#af5d23"/><path d="m32 42h1v1h-1z" fill="#af5d23"/><path d="m33 42h1v1h-1z" fill="#af5d23"/><path d="m34 42h1v1h-1z" fill="#af5d23"/><path d="m35 42h1v1h-1z" fill="#f8993a"/><path d="m36 42h1v1h-1z" fill="#f8993a"/><path d="m37 42h1v1h-1z" fill="#f8993a"/><path d="m38 42h1v1h-1z" fill="#2f1316"/><path d="m39 42h1v1h-1z" fill="#2f1316"/><path d="m42 42h1v1h-1z" fill="#431e1e"/><path d="m43 42h1v1h-1z" fill="#431e1e"/><path d="m20 43h1v1h-1z" fill="#431e1e"/><path d="m21 43h1v1h-1z" fill="#431e1e"/><path d="m25 43h1v1h-1z" fill="#2f1316"/><path d="m26 43h1v1h-1z" fill="#2f1316"/><path d="m27 43h1v1h-1z" fill="#421d1d"/><path d="m28 43h1v1h-1z" fill="#431e1e"/><path d="m29 43h1v1h-1z" fill="#74341a"/><path d="m30 43h1v1h-1z" fill="#74341a"/><path d="m31 43h1v1h-1z" fill="#74341a"/><path d="m32 43h1v1h-1z" fill="#af5d23"/><path d="m33 43h1v1h-1z" fill="#af5d23"/><path d="m34 43h1v1h-1z" fill="#af5d23"/><path d="m35 43h1v1h-1z" fill="#af5d23"/><path d="m36 43h1v1h-1z" fill="#f8993a"/><path d="m37 43h1v1h-1z" fill="#2f1316"/><path d="m38 43h1v1h-1z" fill="#2f1316"/><path d="m42 43h1v1h-1z" fill="#431e1e"/><path d="m43 43h1v1h-1z" fill="#431e1e"/><path d="m20 44h1v1h-1z" fill="#431e1e"/><path d="m21 44h1v1h-1z" fill="#431e1e"/><path d="m24 44h1v1h-1z" fill="#242d4f"/><path d="m25 44h1v1h-1z" fill="#242d4f"/><path d="m26 44h1v1h-1z" fill="#2f1316"/><path d="m27 44h1v1h-1z" fill="#2f1316"/><path d="m28 44h1v1h-1z" fill="#431e1e"/><path d="m29 44h1v1h-1z" fill="#431e1e"/><path d="m30 44h1v1h-1z" fill="#74341a"/><path d="m31 44h1v1h-1z" fill="#74341a"/><path d="m32 44h1v1h-1z" fill="#74341a"/><path d="m33 44h1v1h-1z" fill="#af5d23"/><path d="m34 44h1v1h-1z" fill="#af5d23"/><path d="m35 44h1v1h-1z" fill="#af5d23"/><path d="m36 44h1v1h-1z" fill="#2f1316"/><path d="m37 44h1v1h-1z" fill="#2f1316"/><path d="m38 44h1v1h-1z" fill="#242d4f"/><path d="m39 44h1v1h-1z" fill="#242d4f"/><path d="m42 44h1v1h-1z" fill="#431e1e"/><path d="m43 44h1v1h-1z" fill="#431e1e"/><path d="m20 45h1v1h-1z" fill="#431e1e"/><path d="m21 45h1v1h-1z" fill="#431e1e"/><path d="m23 45h1v1h-1z" fill="#242d4f"/><path d="m24 45h1v1h-1z" fill="#242d4f"/><path d="m25 45h1v1h-1z" fill="#242d4f"/><path d="m26 45h1v1h-1z" fill="#242d4f"/><path d="m27 45h1v1h-1z" fill="#2f1316"/><path d="m28 45h1v1h-1z" fill="#2f1316"/><path d="m29 45h1v1h-1z" fill="#431e1e"/><path d="m30 45h1v1h-1z" fill="#431e1e"/><path d="m31 45h1v1h-1z" fill="#74341a"/><path d="m32 45h1v1h-1z" fill="#74341a"/><path d="m33 45h1v1h-1z" fill="#74341a"/><path d="m34 45h1v1h-1z" fill="#af5d23"/><path d="m35 45h1v1h-1z" fill="#2f1316"/><path d="m36 45h1v1h-1z" fill="#2f1316"/><path d="m37 45h1v1h-1z" fill="#242d4f"/><path d="m38 45h1v1h-1z" fill="#242d4f"/><path d="m39 45h1v1h-1z" fill="#242d4f"/><path d="m40 45h1v1h-1z" fill="#242d4f"/><path d="m42 45h1v1h-1z" fill="#431e1e"/><path d="m43 45h1v1h-1z" fill="#431e1e"/><path d="m20 46h1v1h-1z" fill="#431e1e"/><path d="m21 46h1v1h-1z" fill="#431e1e"/><path d="m22 46h1v1h-1z" fill="#242d4f"/><path d="m23 46h1v1h-1z" fill="#242d4f"/><path d="m24 46h1v1h-1z" fill="#242d4f"/><path d="m25 46h1v1h-1z" fill="#242d4f"/><path d="m26 46h1v1h-1z" fill="#242d4f"/><path d="m27 46h1v1h-1z" fill="#242d4f"/><path d="m28 46h1v1h-1z" fill="#2f1316"/><path d="m29 46h1v1h-1z" fill="#2f1316"/><path d="m30 46h1v1h-1z" fill="#431e1e"/><path d="m31 46h1v1h-1z" fill="#431e1e"/><path d="m32 46h1v1h-1z" fill="#74341a"/><path d="m33 46h1v1h-1z" fill="#74341a"/><path d="m34 46h1v1h-1z" fill="#2f1316"/><path d="m35 46h1v1h-1z" fill="#2f1316"/><path d="m36 46h1v1h-1z" fill="#242d4f"/><path d="m37 46h1v1h-1z" fill="#242d4f"/><path d="m38 46h1v1h-1z" fill="#242d4f"/><path d="m39 46h1v1h-1z" fill="#242d4f"/><path d="m40 46h1v1h-1z" fill="#242d4f"/><path d="m41 46h1v1h-1z" fill="#242d4f"/><path d="m42 46h1v1h-1z" fill="#431e1e"/><path d="m43 46h1v1h-1z" fill="#431e1e"/><path d="m20 47h1v1h-1z" fill="#431e1e"/><path d="m21 47h1v1h-1z" fill="#431e1e"/><path d="m22 47h1v1h-1z" fill="#242d4f"/><path d="m23 47h1v1h-1z" fill="#242d4f"/><path d="m24 47h1v1h-1z" fill="#242d4f"/><path d="m25 47h1v1h-1z" fill="#242d4f"/><path d="m26 47h1v1h-1z" fill="#242d4f"/><path d="m27 47h1v1h-1z" fill="#242d4f"/><path d="m28 47h1v1h-1z" fill="#242d4f"/><path d="m29 47h1v1h-1z" fill="#2f1316"/><path d="m30 47h1v1h-1z" fill="#2f1316"/><path d="m31 47h1v1h-1z" fill="#431e1e"/><path d="m32 47h1v1h-1z" fill="#431e1e"/><path d="m33 47h1v1h-1z" fill="#2f1316"/><path d="m34 47h1v1h-1z" fill="#2f1316"/><path d="m35 47h1v1h-1z" fill="#242d4f"/><path d="m36 47h1v1h-1z" fill="#242d4f"/><path d="m37 47h1v1h-1z" fill="#242d4f"/><path d="m38 47h1v1h-1z" fill="#242d4f"/><path d="m39 47h1v1h-1z" fill="#242d4f"/><path d="m40 47h1v1h-1z" fill="#242d4f"/><path d="m41 47h1v1h-1z" fill="#242d4f"/><path d="m42 47h1v1h-1z" fill="#431e1e"/><path d="m43 47h1v1h-1z" fill="#431e1e"/><path d="m20 48h1v1h-1z" fill="#431e1e"/><path d="m21 48h1v1h-1z" fill="#431e1e"/><path d="m22 48h1v1h-1z" fill="#242d4f"/><path d="m23 48h1v1h-1z" fill="#242d4f"/><path d="m24 48h1v1h-1z" fill="#242d4f"/><path d="m25 48h1v1h-1z" fill="#242d4f"/><path d="m26 48h1v1h-1z" fill="#242d4f"/><path d="m27 48h1v1h-1z" fill="#242d4f"/><path d="m28 48h1v1h-1z" fill="#242d4f"/><path d="m29 48h1v1h-1z" fill="#242d4f"/><path d="m30 48h1v1h-1z" fill="#2f1316"/><path d="m31 48h1v1h-1z" fill="#2f1316"/><path d="m32 48h1v1h-1z" fill="#2f1316"/><path d="m33 48h1v1h-1z" fill="#2f1316"/><path d="m34 48h1v1h-1z" fill="#242d4f"/><path d="m35 48h1v1h-1z" fill="#242d4f"/><path d="m36 48h1v1h-1z" fill="#242d4f"/><path d="m37 48h1v1h-1z" fill="#242d4f"/><path d="m38 48h1v1h-1z" fill="#242d4f"/><path d="m39 48h1v1h-1z" fill="#242d4f"/><path d="m40 48h1v1h-1z" fill="#242d4f"/><path d="m41 48h1v1h-1z" fill="#242d4f"/><path d="m42 48h1v1h-1z" fill="#431e1e"/><path d="m43 48h1v1h-1z" fill="#431e1e"/><path d="m20 49h1v1h-1z" fill="#431e1e"/><path d="m21 49h1v1h-1z" fill="#431e1e"/><path d="m22 49h1v1h-1z" fill="#242d4f"/><path d="m23 49h1v1h-1z" fill="#242d4f"/><path d="m24 49h1v1h-1z" fill="#242d4f"/><path d="m25 49h1v1h-1z" fill="#242d4f"/><path d="m26 49h1v1h-1z" fill="#242d4f"/><path d="m27 49h1v1h-1z" fill="#242d4f"/><path d="m28 49h1v1h-1z" fill="#242d4f"/><path d="m29 49h1v1h-1z" fill="#242d4f"/><path d="m30 49h1v1h-1z" fill="#242d4f"/><path d="m31 49h1v1h-1z" fill="#2f1316"/><path d="m32 49h1v1h-1z" fill="#2f1316"/><path d="m33 49h1v1h-1z" fill="#242d4f"/><path d="m34 49h1v1h-1z" fill="#242d4f"/><path d="m35 49h1v1h-1z" fill="#242d4f"/><path d="m36 49h1v1h-1z" fill="#242d4f"/><path d="m37 49h1v1h-1z" fill="#242d4f"/><path d="m38 49h1v1h-1z" fill="#242d4f"/><path d="m39 49h1v1h-1z" fill="#242d4f"/><path d="m40 49h1v1h-1z" fill="#242d4f"/><path d="m41 49h1v1h-1z" fill="#242d4f"/><path d="m42 49h1v1h-1z" fill="#431e1e"/><path d="m43 49h1v1h-1z" fill="#431e1e"/><path d="m21 50h1v1h-1z" fill="#242d4f"/><path d="m22 50h1v1h-1z" fill="#242d4f"/><path d="m23 50h1v1h-1z" fill="#242d4f"/><path d="m24 50h1v1h-1z" fill="#242d4f"/><path d="m25 50h1v1h-1z" fill="#242d4f"/><path d="m26 50h1v1h-1z" fill="#242d4f"/><path d="m27 50h1v1h-1z" fill="#242d4f"/><path d="m28 50h1v1h-1z" fill="#242d4f"/><path d="m29 50h1v1h-1z" fill="#242d4f"/><path d="m30 50h1v1h-1z" fill="#242d4f"/><path d="m31 50h1v1h-1z" fill="#431e1e"/><path d="m32 50h1v1h-1z" fill="#431e1e"/><g fill="#242d4f"><path d="m33 50h1v1h-1z"/><path d="m34 50h1v1h-1z"/><path d="m35 50h1v1h-1z"/><path d="m36 50h1v1h-1z"/><path d="m37 50h1v1h-1z"/><path d="m38 50h1v1h-1z"/><path d="m39 50h1v1h-1z"/><path d="m40 50h1v1h-1z"/><path d="m41 50h1v1h-1z"/><path d="m42 50h1v1h-1z"/><path d="m22 51h1v1h-1z"/><path d="m23 51h1v1h-1z"/><path d="m24 51h1v1h-1z"/><path d="m25 51h1v1h-1z"/><path d="m26 51h1v1h-1z"/><path d="m27 51h1v1h-1z"/><path d="m28 51h1v1h-1z"/><path d="m29 51h1v1h-1z"/><path d="m30 51h1v1h-1z"/></g><path d="m31 51h1v1h-1z" fill="#431e1e"/><path d="m32 51h1v1h-1z" fill="#431e1e"/><g fill="#242d4f"><path d="m33 51h1v1h-1z"/><path d="m34 51h1v1h-1z"/><path d="m35 51h1v1h-1z"/><path d="m36 51h1v1h-1z"/><path d="m37 51h1v1h-1z"/><path d="m38 51h1v1h-1z"/><path d="m39 51h1v1h-1z"/><path d="m40 51h1v1h-1z"/><path d="m41 51h1v1h-1z"/><path d="m23 52h1v1h-1z"/><path d="m24 52h1v1h-1z"/><path d="m25 52h1v1h-1z"/><path d="m26 52h1v1h-1z"/><path d="m27 52h1v1h-1z"/><path d="m28 52h1v1h-1z"/><path d="m29 52h1v1h-1z"/><path d="m30 52h1v1h-1z"/></g><path d="m31 52h1v1h-1z" fill="#431e1e"/><path d="m32 52h1v1h-1z" fill="#431e1e"/><path d="m33 52h1v1h-1z" fill="#242d4f"/><path d="m34 52h1v1h-1z" fill="#242d4f"/><path d="m35 52h1v1h-1z" fill="#242d4f"/><path d="m36 52h1v1h-1z" fill="#242d4f"/><path d="m37 52h1v1h-1z" fill="#242d4f"/><path d="m38 52h1v1h-1z" fill="#242d4f"/><path d="m39 52h1v1h-1z" fill="#242d4f"/><path d="m40 52h1v1h-1z" fill="#242d4f"/><path d="m24 53h1v1h-1z" fill="#242d4f"/><path d="m25 53h1v1h-1z" fill="#242d4f"/><path d="m26 53h1v1h-1z" fill="#242d4f"/><path d="m27 53h1v1h-1z" fill="#242d4f"/><path d="m28 53h1v1h-1z" fill="#242d4f"/><path d="m29 53h1v1h-1z" fill="#242d4f"/><path d="m30 53h1v1h-1z" fill="#242d4f"/><path d="m31 53h1v1h-1z" fill="#431e1e"/><path d="m32 53h1v1h-1z" fill="#431e1e"/><path d="m33 53h1v1h-1z" fill="#242d4f"/><path d="m34 53h1v1h-1z" fill="#242d4f"/><path d="m35 53h1v1h-1z" fill="#242d4f"/><path d="m36 53h1v1h-1z" fill="#242d4f"/><path d="m37 53h1v1h-1z" fill="#242d4f"/><path d="m38 53h1v1h-1z" fill="#242d4f"/><path d="m39 53h1v1h-1z" fill="#242d4f"/><path d="m25 54h1v1h-1z" fill="#242d4f"/><path d="m26 54h1v1h-1z" fill="#242d4f"/><path d="m27 54h1v1h-1z" fill="#242d4f"/><path d="m28 54h1v1h-1z" fill="#242d4f"/><path d="m29 54h1v1h-1z" fill="#242d4f"/><path d="m30 54h1v1h-1z" fill="#242d4f"/><path d="m31 54h1v1h-1z" fill="#431e1e"/><path d="m32 54h1v1h-1z" fill="#431e1e"/><path d="m33 54h1v1h-1z" fill="#242d4f"/><path d="m34 54h1v1h-1z" fill="#242d4f"/><path d="m35 54h1v1h-1z" fill="#242d4f"/><path d="m36 54h1v1h-1z" fill="#242d4f"/><path d="m37 54h1v1h-1z" fill="#242d4f"/><path d="m38 54h1v1h-1z" fill="#242d4f"/><path d="m26 55h1v1h-1z" fill="#242d4f"/><path d="m27 55h1v1h-1z" fill="#242d4f"/><path d="m28 55h1v1h-1z" fill="#242d4f"/><path d="m29 55h1v1h-1z" fill="#242d4f"/><path d="m30 55h1v1h-1z" fill="#242d4f"/><path d="m31 55h1v1h-1z" fill="#431e1e"/><path d="m32 55h1v1h-1z" fill="#431e1e"/><path d="m33 55h1v1h-1z" fill="#242d4f"/><path d="m34 55h1v1h-1z" fill="#242d4f"/><path d="m35 55h1v1h-1z" fill="#242d4f"/><path d="m36 55h1v1h-1z" fill="#242d4f"/><path d="m37 55h1v1h-1z" fill="#242d4f"/><path d="m27 56h1v1h-1z" fill="#242d4f"/><path d="m28 56h1v1h-1z" fill="#242d4f"/><path d="m29 56h1v1h-1z" fill="#242d4f"/><path d="m30 56h1v1h-1z" fill="#242d4f"/><path d="m31 56h1v1h-1z" fill="#431e1e"/><path d="m32 56h1v1h-1z" fill="#431e1e"/><path d="m33 56h1v1h-1z" fill="#242d4f"/><path d="m34 56h1v1h-1z" fill="#242d4f"/><path d="m35 56h1v1h-1z" fill="#242d4f"/><path d="m36 56h1v1h-1z" fill="#242d4f"/><path d="m28 57h1v1h-1z" fill="#242d4f"/><path d="m29 57h1v1h-1z" fill="#242d4f"/><path d="m30 57h1v1h-1z" fill="#242d4f"/><path d="m31 57h1v1h-1z" fill="#431e1e"/><path d="m32 57h1v1h-1z" fill="#431e1e"/><path d="m33 57h1v1h-1z" fill="#242d4f"/><path d="m34 57h1v1h-1z" fill="#242d4f"/><path d="m35 57h1v1h-1z" fill="#242d4f"/><path d="m29 58h1v1h-1z" fill="#242d4f"/><path d="m30 58h1v1h-1z" fill="#242d4f"/><path d="m31 58h1v1h-1z" fill="#431e1e"/><path d="m32 58h1v1h-1z" fill="#431e1e"/><path d="m33 58h1v1h-1z" fill="#242d4f"/><path d="m34 58h1v1h-1z" fill="#242d4f"/><path d="m30 59h1v1h-1z" fill="#242d4f"/><path d="m31 59h1v1h-1z" fill="#431e1e"/><path d="m32 59h1v1h-1z" fill="#431e1e"/><path d="m33 59h1v1h-1z" fill="#2c2c4e"/><path d="m31 60h1v1h-1z" fill="#431e1e"/><path d="m32 60h1v1h-1z" fill="#431e1e"/></svg>